<svg width="549" height="150" viewBox="0 0 549 150" fill="none" xmlns="http://www.w3.org/2000/svg">
<path d="M37.128 106.697L19.1903 90.6471H120.253V81.7058H19.1903L37.128 65.6563L30.0632 59.3528L0 86.1764L30.0632 113L37.128 106.697Z" fill="#4F46E5"/>
<path d="M150 63.8237L119.937 37L112.872 43.3036L130.81 59.3531H29.7473V68.2943H130.81L112.872 84.3438L119.937 90.6473L150 63.8237Z" fill="#4F46E5"/>
<path d="M247.016 45.6H221.672L232.232 37.056L218.408 102H199.064L212.888 37.056L219.8 45.6H194.504L197.576 31.2H250.088L247.016 45.6ZM237.018 102L247.818 51.024H267.21L263.226 69.888L260.442 67.296C261.498 64.576 262.778 62.144 264.282 60C265.786 57.856 267.466 56.048 269.322 54.576C271.21 53.072 273.258 51.936 275.466 51.168C277.674 50.368 280.026 49.968 282.522 49.968C284.602 49.968 286.122 50.112 287.082 50.4C288.074 50.656 288.682 50.864 288.906 51.024L282.618 67.92C282.394 67.76 281.818 67.52 280.89 67.2C279.962 66.848 278.794 66.672 277.386 66.672C274.89 66.672 272.698 67.072 270.81 67.872C268.922 68.64 267.306 69.68 265.962 70.992C264.65 72.304 263.578 73.776 262.746 75.408C261.914 77.04 261.322 78.704 260.97 80.4L256.41 102H237.018ZM306.453 103.248C302.549 103.248 299.077 102.416 296.037 100.752C293.029 99.056 290.677 96.56 288.981 93.264C287.285 89.968 286.437 85.936 286.437 81.168C286.437 76.848 287.141 72.8 288.549 69.024C289.957 65.248 291.941 61.936 294.501 59.088C297.093 56.208 300.149 53.968 303.669 52.368C307.189 50.768 311.045 49.968 315.237 49.968C318.661 49.968 321.797 50.768 324.645 52.368C327.493 53.968 329.765 56.208 331.461 59.088C333.189 61.968 334.053 65.312 334.053 69.12C334.053 70.016 333.973 71.072 333.813 72.288C333.685 73.504 333.493 74.576 333.237 75.504L326.373 75.888C326.469 75.44 326.549 74.992 326.613 74.544C326.677 74.064 326.709 73.616 326.709 73.2C326.709 71.568 326.309 70.224 325.509 69.168C324.741 68.08 323.733 67.28 322.485 66.768C321.269 66.224 319.989 65.952 318.645 65.952C317.045 65.952 315.541 66.256 314.133 66.864C312.725 67.44 311.477 68.272 310.389 69.36C309.333 70.448 308.501 71.76 307.893 73.296C307.285 74.8 306.981 76.48 306.981 78.336C306.981 80.256 307.301 81.872 307.941 83.184C308.581 84.496 309.477 85.504 310.629 86.208C311.781 86.88 313.093 87.216 314.565 87.216C316.261 87.216 317.893 86.864 319.461 86.16C321.061 85.424 322.437 84.352 323.589 82.944C324.773 81.504 325.589 79.728 326.037 77.616L332.613 78.528C331.557 83.552 329.701 87.92 327.045 91.632C324.421 95.344 321.317 98.208 317.733 100.224C314.149 102.24 310.389 103.248 306.453 103.248ZM340.149 102H320.805L331.605 51.024H350.949L340.149 102ZM370.402 103.248C364.674 103.248 360.114 101.44 356.722 97.824C353.362 94.176 351.682 88.944 351.682 82.128C351.682 77.744 352.434 73.616 353.938 69.744C355.442 65.872 357.538 62.464 360.226 59.52C362.946 56.544 366.114 54.208 369.73 52.512C373.346 50.816 377.282 49.968 381.538 49.968C385.026 49.968 388.066 50.768 390.658 52.368C393.282 53.936 395.314 56.128 396.754 58.944C398.226 61.728 398.962 64.928 398.962 68.544C398.962 69.568 398.866 70.768 398.674 72.144C398.514 73.488 398.306 74.672 398.05 75.696H391.234C391.33 75.312 391.41 74.832 391.474 74.256C391.57 73.648 391.618 73.168 391.618 72.816C391.618 71.184 391.234 69.84 390.466 68.784C389.73 67.728 388.77 66.944 387.586 66.432C386.402 65.92 385.154 65.664 383.842 65.664C382.05 65.664 380.418 65.984 378.946 66.624C377.474 67.264 376.194 68.176 375.106 69.36C374.05 70.512 373.234 71.888 372.658 73.488C372.082 75.056 371.794 76.768 371.794 78.624C371.794 81.312 372.498 83.376 373.906 84.816C375.346 86.224 377.154 86.928 379.33 86.928C380.866 86.928 382.434 86.576 384.034 85.872C385.666 85.136 387.106 84.048 388.354 82.608C389.602 81.168 390.45 79.392 390.898 77.28L397.618 77.76C396.626 82.464 394.754 86.752 392.002 90.624C389.25 94.464 385.986 97.536 382.21 99.84C378.434 102.112 374.498 103.248 370.402 103.248ZM385.618 102L401.602 26.976H420.994L405.01 102H385.618ZM413.808 102L424.608 51.024H443.856L433.056 102H413.808ZM436.464 45.024C433.776 45.024 431.472 44.368 429.552 43.056C427.632 41.744 426.672 39.872 426.672 37.44C426.672 35.392 427.216 33.68 428.304 32.304C429.424 30.896 430.864 29.84 432.624 29.136C434.416 28.4 436.304 28.032 438.288 28.032C440.944 28.032 443.232 28.688 445.152 30C447.104 31.28 448.08 33.152 448.08 35.616C448.08 37.632 447.52 39.344 446.4 40.752C445.312 42.16 443.888 43.232 442.128 43.968C440.368 44.672 438.48 45.024 436.464 45.024ZM448.006 102L455.782 65.424H445.51L448.582 51.024H458.854L459.19 49.536C460.342 44.448 462.086 40.368 464.422 37.296C466.79 34.192 469.446 31.856 472.39 30.288C475.366 28.688 478.374 27.632 481.414 27.12C484.486 26.576 487.302 26.304 489.862 26.304C491.654 26.304 493.27 26.432 494.71 26.688C496.182 26.912 497.126 27.104 497.542 27.264L494.326 41.904C493.974 41.776 493.302 41.632 492.31 41.472C491.318 41.28 490.23 41.184 489.046 41.184C486.87 41.184 485.062 41.52 483.622 42.192C482.214 42.832 481.094 43.792 480.262 45.072C479.462 46.32 478.854 47.872 478.438 49.728L478.15 51.024H491.062L487.99 65.424H475.078L467.302 102H448.006ZM488.263 124.416C486.438 124.416 484.742 124.368 483.174 124.272C481.606 124.176 480.678 124.064 480.39 123.936L483.51 109.824C483.926 110.048 484.646 110.208 485.67 110.304C486.662 110.4 487.815 110.448 489.127 110.448C490.407 110.448 491.623 110.208 492.775 109.728C493.959 109.248 495.047 108.544 496.039 107.616C497.063 106.72 497.943 105.6 498.679 104.256L499.398 102.96L492.823 51.024H512.503L512.983 91.44H510.871L528.007 51.024H548.359L520.567 103.296C518.071 107.968 515.463 111.872 512.743 115.008C510.055 118.144 506.791 120.496 502.951 122.064C499.111 123.632 494.215 124.416 488.263 124.416Z" fill="#111827"/>
</svg>
